# xmcd CD database file
#
# Track frame offsets:
#	150
#	27651
#	58539
#	81803
#	109291
#
# Disc length: 1761 seconds
#
# Revision: 0
# Processed by: cddbd v1.5.2PL0 Copyright (c) Steve Scherf et al.
# Submitted via: CDex 1.70beta2
#
DISCID=3d06df05
DTITLE=Carla Rey - Heavy Heart
DYEAR=1900
DGENRE=Jazz
TTITLE0=Light Or Dark
TTITLE1=Talking Heads
TTITLE2=Joyful Noise
TTITLE3=Ending It
TTITLE4=Starting Again
EXTD=
EXTT0=
EXTT1=
EXTT2=
EXTT3=
EXTT4=
PLAYORDER=
